<?xml version="1.0" encoding="UTF-8"?>
<svg xmlns="http://www.w3.org/2000/svg" xmlns:xlink="http://www.w3.org/1999/xlink" width="400" height="400" viewBox="0 0 400 400">
<path fill="none" stroke-width="2" stroke-linecap="butt" stroke-linejoin="miter" stroke="rgb(0%, 0%, 0%)" stroke-opacity="1" stroke-miterlimit="10" d="M 63.347656 121.101562 L 63.347656 226.9375 C 63.347656 236.046875 68.207031 244.464844 76.097656 249.019531 C 83.984375 253.574219 93.707031 253.574219 101.597656 249.019531 L 188.75 198.699219 C 191.535156 197.09375 193.25 194.121094 193.25 190.90625 L 193.25 90.269531 C 193.25 81.160156 188.390625 72.742188 180.5 68.1875 C 172.609375 63.632812 162.890625 63.632812 155 68.1875 Z M 63.347656 121.101562 "/>
<path fill="none" stroke-width="2" stroke-linecap="butt" stroke-linejoin="miter" stroke="rgb(0%, 0%, 0%)" stroke-opacity="1" stroke-miterlimit="10" d="M 200 357.792969 L 291.652344 304.878906 C 299.542969 300.324219 304.402344 291.90625 304.402344 282.792969 C 304.402344 273.683594 299.542969 265.265625 291.652344 260.710938 L 204.5 210.390625 C 201.714844 208.785156 198.285156 208.785156 195.5 210.390625 L 108.347656 260.710938 C 100.457031 265.265625 95.597656 273.683594 95.597656 282.792969 C 95.597656 291.90625 100.457031 300.324219 108.347656 304.878906 Z M 200 357.792969 "/>
<path fill="none" stroke-width="2" stroke-linecap="butt" stroke-linejoin="miter" stroke="rgb(0%, 0%, 0%)" stroke-opacity="1" stroke-miterlimit="10" d="M 336.652344 121.101562 L 245 68.1875 C 237.109375 63.632812 227.390625 63.632812 219.5 68.1875 C 211.609375 72.742188 206.75 81.160156 206.75 90.269531 L 206.75 190.90625 C 206.75 194.121094 208.464844 197.09375 211.25 198.699219 L 298.402344 249.019531 C 306.292969 253.574219 316.015625 253.574219 323.902344 249.019531 C 331.792969 244.464844 336.652344 236.046875 336.652344 226.9375 Z M 336.652344 121.101562 "/>
</svg>
