<?xml version="1.0" encoding="UTF-8"?>
<svg xmlns="http://www.w3.org/2000/svg" xmlns:xlink="http://www.w3.org/1999/xlink" width="400" height="400" viewBox="0 0 400 400">
<path fill="none" stroke-width="2" stroke-linecap="butt" stroke-linejoin="miter" stroke="rgb(0%, 0%, 0%)" stroke-opacity="0.5" stroke-miterlimit="10" d="M 155 290 L 250.421875 123.015625 C 253.699219 117.273438 252.835938 110.066406 248.292969 105.265625 C 243.75 100.460938 236.601562 99.199219 230.6875 102.15625 L 125 155 "/>
<path fill="none" stroke-width="2" stroke-linecap="butt" stroke-linejoin="miter" stroke="rgb(0%, 0%, 0%)" stroke-opacity="0.5" stroke-dasharray="1 3" stroke-miterlimit="10" d="M 155 290 L 275 80 "/>
<path fill="none" stroke-width="2" stroke-linecap="butt" stroke-linejoin="miter" stroke="rgb(0%, 0%, 0%)" stroke-opacity="0.5" stroke-dasharray="1 3" stroke-miterlimit="10" d="M 275 80 L 125 155 "/>
<path fill-rule="nonzero" fill="rgb(100%, 0%, 0%)" fill-opacity="0.5" d="M 159.5 290 C 159.5 287.515625 157.484375 285.5 155 285.5 C 152.515625 285.5 150.5 287.515625 150.5 290 C 150.5 292.484375 152.515625 294.5 155 294.5 C 157.484375 294.5 159.5 292.484375 159.5 290 Z M 159.5 290 "/>
<path fill-rule="nonzero" fill="rgb(100%, 0%, 0%)" fill-opacity="0.5" d="M 279.5 80 C 279.5 77.515625 277.484375 75.5 275 75.5 C 272.515625 75.5 270.5 77.515625 270.5 80 C 270.5 82.484375 272.515625 84.5 275 84.5 C 277.484375 84.5 279.5 82.484375 279.5 80 Z M 279.5 80 "/>
<path fill-rule="nonzero" fill="rgb(100%, 0%, 0%)" fill-opacity="0.5" d="M 129.5 155 C 129.5 152.515625 127.484375 150.5 125 150.5 C 122.515625 150.5 120.5 152.515625 120.5 155 C 120.5 157.484375 122.515625 159.5 125 159.5 C 127.484375 159.5 129.5 157.484375 129.5 155 Z M 129.5 155 "/>
</svg>
